<svg width="128" height="128" viewBox="0 0 128 128" xmlns="http://www.w3.org/2000/svg">
  <!-- Background circle -->
  <circle cx="64" cy="64" r="60" fill="#007ACC" stroke="#005A9E" stroke-width="2"/>
  
  <!-- Folder icon representing directory -->
  <path d="M20 40 L45 40 L50 35 L105 35 C107 35 108 36 108 38 L108 85 C108 87 107 88 105 88 L23 88 C21 88 20 87 20 85 Z" 
        fill="#FFD700" stroke="#E6C200" stroke-width="1"/>
  
  <!-- File icon -->
  <rect x="35" y="50" width="25" height="30" fill="white" stroke="#ccc" stroke-width="1" rx="2"/>
  <line x1="40" y1="55" x2="55" y2="55" stroke="#666" stroke-width="1"/>
  <line x1="40" y1="60" x2="55" y2="60" stroke="#666" stroke-width="1"/>
  <line x1="40" y1="65" x2="50" y2="65" stroke="#666" stroke-width="1"/>
  
  <!-- Forward slash representing path separator -->
  <path d="M65 45 L75 75" stroke="white" stroke-width="3" stroke-linecap="round"/>
  
  <!-- Copy/clipboard icon -->
  <rect x="80" y="50" width="20" height="25" fill="white" stroke="#666" stroke-width="1.5" rx="2"/>
  <rect x="82" y="52" width="16" height="3" fill="#007ACC"/>
  <line x1="85" y1="58" x2="97" y2="58" stroke="#666" stroke-width="1"/>
  <line x1="85" y1="62" x2="95" y2="62" stroke="#666" stroke-width="1"/>
  <line x1="85" y1="66" x2="97" y2="66" stroke="#666" stroke-width="1"/>
  
  <!-- Small copy indicator -->
  <rect x="77" y="47" width="20" height="25" fill="none" stroke="#666" stroke-width="1" stroke-dasharray="2,2" rx="2" opacity="0.6"/>
</svg>
